<svg width="122" height="32" viewBox="0 0 122 32" fill="none" xmlns="http://www.w3.org/2000/svg">
<g clip-path="url(#clip0_9_586)">
<path d="M26.0402 26.056C27.6898 25.6432 28.9202 25.232 28.9202 25.232C29.299 25.0386 29.6158 24.7427 29.8348 24.3781C30.0537 24.0135 30.1659 23.5948 30.1586 23.1696V20.6944C29.5234 22.9432 28.0492 24.8624 26.0402 26.056ZM27.6898 18.6336L24.8098 17.3952V19.04C24.7272 19.7645 24.5027 20.4656 24.1491 21.1034C23.7955 21.7411 23.3198 22.3029 22.749 22.7568C23.1618 22.7568 23.1618 23.1696 23.1618 23.5824L22.749 24.4064L24.3986 25.232C27.6978 23.9936 28.5234 20.2832 28.9346 18.2208L27.6898 18.6336ZM16.5554 23.5824C16.0995 22.829 15.8175 21.9834 15.7298 21.1072V27.7056C15.7731 28.0186 15.9181 28.3087 16.1426 28.5312H17.3794C19.0901 28.4196 20.7666 28.0001 22.3282 27.2928C21.1513 27.1402 20.023 26.7282 19.0247 26.0866C18.0264 25.4449 17.183 24.5896 16.5554 23.5824ZM19.8546 15.3344C19.8336 15.7837 19.9808 16.2246 20.2674 16.5712C20.6786 16.5712 21.0914 16.5712 21.5042 15.7456C21.917 14.92 21.5042 14.096 20.6786 14.096C20.4467 14.2145 20.2491 14.3907 20.1048 14.6075C19.9605 14.8244 19.8743 15.0747 19.8546 15.3344ZM16.1426 12.8592V17.808C16.3732 16.1227 17.0225 14.5221 18.0312 13.1525C19.04 11.7829 20.3759 10.6881 21.917 9.96799L17.3794 11.2048C16.5554 11.2096 16.1426 12.0352 16.1426 12.8592ZM14.493 12.8592C14.437 12.103 14.6568 11.352 15.1119 10.7454C15.567 10.1388 16.2265 9.71771 16.9682 9.55999L27.277 7.08639L18.6178 3.78719H16.9682L5.421 6.26079C5.421 6.26079 4.1826 6.67359 4.1826 7.49759V8.31999L3.3586 9.97279V12.4464L2.533 12.8592V13.6848L3.3586 14.096V16.16L4.1826 17.3968V22.7584C4.1802 22.8675 4.19991 22.9759 4.24055 23.0772C4.28119 23.1784 4.34191 23.2704 4.41906 23.3475C4.49621 23.4247 4.58818 23.4854 4.68943 23.526C4.79069 23.5667 4.89912 23.5864 5.0082 23.584C5.8322 23.9952 11.1938 26.464 14.493 27.7072V12.8592ZM24.8034 12.8592L27.6834 14.096L28.509 13.6848C28.0069 13.055 27.5905 12.3615 27.2706 11.6224C26.5186 11.1648 25.6731 10.8826 24.797 10.7968L24.8034 12.8592ZM29.3394 8.31999L23.5666 9.55679C24.3644 9.34193 25.205 9.34325 26.0022 9.5606C26.7993 9.77795 27.5243 10.2035 28.1026 10.7936C28.5973 11.0985 29.0075 11.5227 29.2957 12.0272C29.5839 12.5318 29.7409 13.1006 29.7522 13.6816V8.31999C29.7522 7.91039 29.3394 7.91039 29.3394 8.31999ZM31.2178 6.23999C30.9142 5.93335 30.5228 5.7287 30.0978 5.65439L19.5106 1.58559C19.0672 1.34378 18.5717 1.21322 18.0667 1.20514C17.5617 1.19706 17.0623 1.31169 16.6114 1.53919C14.9938 1.94399 5.1874 3.98879 5.0194 4.02719C4.21519 4.19228 3.49087 4.62553 2.96504 5.25601C2.43921 5.88648 2.14303 6.67682 2.125 7.49759V7.76639L1.365 9.27999L1.309 11.2416L0.483398 11.6544V14.7632L0.894598 15.176V16.7568L1.7202 17.9936V22.7568C1.73505 23.4115 1.93822 24.0481 2.3054 24.5903C2.67257 25.1326 3.18821 25.5575 3.7906 25.8144C4.3186 25.9904 6.7698 27.0352 9.1394 28.0448C14.997 30.5408 15.6578 30.7952 15.9442 30.7952H16.7698L17.6946 30.7856C19.2818 30.5216 23.2402 29.2992 26.133 28.4064C27.5282 27.9744 28.9714 27.5296 29.141 27.4976L29.4162 27.4304C30.2582 27.0839 30.9767 26.4924 31.4785 25.7327C31.9803 24.973 32.2424 24.08 32.2306 23.1696V8.73599C32.2794 8.2688 32.2126 7.79676 32.036 7.36149C31.8593 6.92622 31.5784 6.54108 31.2178 6.23999ZM30.9922 23.1712C30.9992 23.8365 30.8076 24.4887 30.4419 25.0445C30.0763 25.6003 29.5531 26.0343 28.9394 26.2912C28.6194 26.3536 27.9042 26.5696 25.7618 27.232C22.9042 28.1136 18.989 29.3232 17.5858 29.5648L16.0354 29.576C15.621 29.4752 12.149 27.9952 9.6146 26.9152C7.0034 25.7952 4.7474 24.8352 4.2514 24.6752C3.87634 24.5084 3.55519 24.2404 3.324 23.9013C3.09281 23.5621 2.96074 23.1652 2.9426 22.7552V17.6224L2.117 16.3856V14.6672L1.7058 14.2544V12.4144L2.5298 12V9.70559L3.2898 8.18559L3.3554 7.49759C3.3554 7.09759 3.3554 5.87839 5.3394 5.21279C5.7442 5.12959 15.269 3.14399 17.0354 2.68639C17.3413 2.52566 17.6825 2.44369 18.028 2.44788C18.3736 2.45207 18.7127 2.54229 19.0146 2.71039L29.7346 6.83519L29.9554 6.87679C30.1036 6.91864 30.2382 6.99864 30.3458 7.10879C30.5902 7.29632 30.7789 7.54688 30.8917 7.83356C31.0044 8.12024 31.037 8.43222 30.9858 8.73599L30.9922 23.1712Z" fill="#1877F2"/>
</g>
<path d="M45.4291 26.288C44.1491 26.288 42.9571 26.056 41.8531 25.592C40.7651 25.128 39.8131 24.48 38.9971 23.648C38.1811 22.816 37.5411 21.84 37.0771 20.72C36.6291 19.6 36.4051 18.376 36.4051 17.048C36.4051 15.72 36.6291 14.496 37.0771 13.376C37.5251 12.24 38.1571 11.264 38.9731 10.448C39.7891 9.616 40.7411 8.976 41.8291 8.528C42.9331 8.064 44.1331 7.832 45.4291 7.832C46.7251 7.832 47.8851 8.048 48.9091 8.48C49.9491 8.912 50.8291 9.488 51.5491 10.208C52.2691 10.928 52.7811 11.728 53.0851 12.608L49.7971 14.192C49.4931 13.328 48.9571 12.616 48.1891 12.056C47.4371 11.48 46.5171 11.192 45.4291 11.192C44.3731 11.192 43.4451 11.44 42.6451 11.936C41.8451 12.432 41.2211 13.12 40.7731 14C40.3411 14.864 40.1251 15.88 40.1251 17.048C40.1251 18.216 40.3411 19.24 40.7731 20.12C41.2211 21 41.8451 21.688 42.6451 22.184C43.4451 22.68 44.3731 22.928 45.4291 22.928C46.5171 22.928 47.4371 22.648 48.1891 22.088C48.9571 21.512 49.4931 20.792 49.7971 19.928L53.0851 21.512C52.7811 22.392 52.2691 23.192 51.5491 23.912C50.8291 24.632 49.9491 25.208 48.9091 25.64C47.8851 26.072 46.7251 26.288 45.4291 26.288ZM55.4722 26V8.12H58.3282L67.9282 20.768L66.3922 21.128V8.12H70.1122V26H67.2322L57.8002 13.256L59.1922 12.896V26H55.4722ZM73.2847 26V8.12H76.1407L85.7407 20.768L84.2047 21.128V8.12H87.9247V26H85.0447L75.6127 13.256L77.0047 12.896V26H73.2847ZM99.5932 26.288C98.3132 26.288 97.1212 26.056 96.0172 25.592C94.9292 25.128 93.9772 24.48 93.1612 23.648C92.3452 22.816 91.7052 21.84 91.2412 20.72C90.7932 19.6 90.5692 18.376 90.5692 17.048C90.5692 15.72 90.7932 14.496 91.2412 13.376C91.6892 12.24 92.3212 11.264 93.1372 10.448C93.9532 9.616 94.9052 8.976 95.9932 8.528C97.0972 8.064 98.2972 7.832 99.5932 7.832C100.889 7.832 102.049 8.048 103.073 8.48C104.113 8.912 104.993 9.488 105.713 10.208C106.433 10.928 106.945 11.728 107.249 12.608L103.961 14.192C103.657 13.328 103.121 12.616 102.353 12.056C101.601 11.48 100.681 11.192 99.5932 11.192C98.5372 11.192 97.6092 11.44 96.8092 11.936C96.0092 12.432 95.3852 13.12 94.9372 14C94.5052 14.864 94.2892 15.88 94.2892 17.048C94.2892 18.216 94.5052 19.24 94.9372 20.12C95.3852 21 96.0092 21.688 96.8092 22.184C97.6092 22.68 98.5372 22.928 99.5932 22.928C100.681 22.928 101.601 22.648 102.353 22.088C103.121 21.512 103.657 20.792 103.961 19.928L107.249 21.512C106.945 22.392 106.433 23.192 105.713 23.912C104.993 24.632 104.113 25.208 103.073 25.64C102.049 26.072 100.889 26.288 99.5932 26.288ZM112.852 26V11.36H108.316V8.12H121.036V11.36H116.572V26H112.852Z" fill="black"/>
<defs>
<clipPath id="clip0_9_586">
<rect width="32" height="32" fill="white" transform="translate(0.349121)"/>
</clipPath>
</defs>
</svg>
